<svg width="64" height="64" viewBox="0 0 64 64" fill="none" xmlns="http://www.w3.org/2000/svg">
<path d="M3.54608 29.7491L5.20908 28.7001C4.27691 35.4016 5.90442 42.2084 9.76718 47.7634C13.6299 53.3185 19.4442 57.2139 26.0511 58.6731C28.0092 59.114 30.01 59.337 32.0171 59.3381C36.8464 59.327 41.5844 58.0213 45.7376 55.5568C49.8908 53.0924 53.3072 49.5594 55.631 45.3259C57.9547 41.0925 59.1009 36.3133 58.95 31.4864C58.7991 26.6594 57.3567 21.9612 54.7731 17.8811C52.8833 14.8783 50.4164 12.2804 47.5155 10.2377C44.6145 8.195 41.3371 6.7482 37.8731 5.9811C32.8597 4.86987 27.6339 5.20459 22.8033 6.94632C17.9727 8.68806 13.7357 11.7652 10.5851 15.8201C10.5017 15.9237 10.4398 16.0429 10.403 16.1706C10.3663 16.2984 10.3554 16.4323 10.3709 16.5643C10.3865 16.6964 10.4283 16.824 10.4938 16.9398C10.5593 17.0555 10.6472 17.157 10.7524 17.2383C10.8576 17.3196 10.978 17.3792 11.1065 17.4134C11.235 17.4477 11.369 17.4559 11.5007 17.4378C11.6325 17.4196 11.7593 17.3753 11.8737 17.3076C11.9881 17.2398 12.0878 17.1499 12.1671 17.0431C15.0849 13.2879 19.009 10.4383 23.4829 8.82596C27.9568 7.21358 32.7965 6.90464 37.4391 7.9351C42.1575 8.99428 46.4674 11.3992 49.8466 14.8584C53.2258 18.3176 55.5292 22.6826 56.4777 27.4244C57.4262 32.1663 56.9791 37.0815 55.1906 41.5744C53.4021 46.0673 50.3489 49.945 46.401 52.7377C42.4531 55.5304 37.78 57.1182 32.948 57.3087C28.1159 57.4991 23.3323 56.2841 19.1769 53.8108C15.0214 51.3374 11.6725 47.712 9.5359 43.3738C7.39929 39.0357 6.56672 34.1709 7.13908 29.3691L8.01708 30.7541C8.16209 30.9711 8.38619 31.1228 8.64153 31.1768C8.89687 31.2309 9.16321 31.1829 9.38369 31.0432C9.60416 30.9036 9.76129 30.6832 9.82153 30.4293C9.88177 30.1753 9.84033 29.9079 9.70608 29.6841L7.43908 26.1001C7.29722 25.8762 7.0723 25.7179 6.81373 25.6597C6.55516 25.6016 6.2841 25.6485 6.06008 25.7901L2.47608 28.0601C2.3617 28.1287 2.26221 28.2195 2.18345 28.3271C2.10469 28.4348 2.04826 28.5571 2.01748 28.6869C1.98669 28.8166 1.98218 28.9512 2.00421 29.0828C2.02623 29.2143 2.07435 29.3401 2.14573 29.4528C2.2171 29.5655 2.3103 29.6627 2.41982 29.7388C2.52935 29.8149 2.65299 29.8684 2.78348 29.896C2.91396 29.9236 3.04865 29.9248 3.17962 29.8996C3.31059 29.8744 3.43519 29.8232 3.54608 29.7491Z" fill="white"/>
<path d="M29 43.0001C29 43.2653 29.1054 43.5197 29.2929 43.7072C29.4804 43.8948 29.7348 44.0001 30 44.0001H34C34.2652 44.0001 34.5196 43.8948 34.7071 43.7072C34.8946 43.5197 35 43.2653 35 43.0001V39.6301C35.5092 39.0528 35.8409 38.3408 35.9555 37.5796C36.07 36.8183 35.9625 36.0402 35.6458 35.3386C35.329 34.637 34.8166 34.0417 34.1699 33.6241C33.5232 33.2065 32.7698 32.9844 32 32.9844C31.2302 32.9844 30.4768 33.2065 29.8301 33.6241C29.1834 34.0417 28.671 34.637 28.3543 35.3386C28.0375 36.0402 27.93 36.8183 28.0445 37.5796C28.1591 38.3408 28.4908 39.0528 29 39.6301V43.0001ZM32 35.0001C32.5304 35.0001 33.0391 35.2108 33.4142 35.5859C33.7893 35.961 34 36.4697 34 37.0001C33.9998 37.2801 33.9399 37.5568 33.8244 37.8118C33.7088 38.0668 33.5403 38.2943 33.33 38.4791C33.226 38.573 33.1429 38.6876 33.0861 38.8156C33.0292 38.9436 32.9999 39.0821 33 39.2221V42.0001H31V39.2221C31.0001 39.0821 30.9708 38.9436 30.9139 38.8156C30.8571 38.6876 30.774 38.573 30.67 38.4791C30.4597 38.2943 30.2912 38.0668 30.1756 37.8118C30.0601 37.5568 30.0002 37.2801 30 37.0001C30 36.4697 30.2107 35.961 30.5858 35.5859C30.9609 35.2108 31.4696 35.0001 32 35.0001V35.0001Z" fill="white"/>
<path d="M33.083 12.917H30.917C28.8182 12.9194 26.806 13.7541 25.3218 15.2381C23.8376 16.7221 23.0026 18.7342 23 20.833V27H20C19.7348 27 19.4804 27.1053 19.2929 27.2929C19.1054 27.4804 19 27.7348 19 28V49C19 49.2652 19.1054 49.5196 19.2929 49.7071C19.4804 49.8946 19.7348 50 20 50H44C44.2652 50 44.5196 49.8946 44.7071 49.7071C44.8946 49.5196 45 49.2652 45 49V28C45 27.7348 44.8946 27.4804 44.7071 27.2929C44.5196 27.1053 44.2652 27 44 27H41V20.833C40.9974 18.7342 40.1624 16.7221 38.6782 15.2381C37.194 13.7541 35.1818 12.9194 33.083 12.917V12.917ZM25 20.833C25.0019 19.2644 25.6259 17.7605 26.7352 16.6514C27.8444 15.5423 29.3484 14.9186 30.917 14.917H33.083C34.6516 14.9186 36.1556 15.5423 37.2648 16.6514C38.3741 17.7605 38.9981 19.2644 39 20.833V27H37V21.833C36.9984 20.5295 36.4798 19.2799 35.558 18.3583C34.6362 17.4366 33.3865 16.9183 32.083 16.917C30.7353 16.9183 29.4432 17.4543 28.4902 18.4072C27.5373 19.3602 27.0013 20.6523 27 22V27H25V20.833ZM35 21.833V27H29V22C29.0008 21.1826 29.3259 20.3989 29.9039 19.8209C30.4819 19.2429 31.2656 18.9178 32.083 18.917C32.8562 18.9178 33.5976 19.2252 34.1444 19.7719C34.6912 20.3185 34.9989 21.0598 35 21.833ZM43 29V48H21V29H43Z" fill="white"/>
</svg>
