<svg width="32" height="32" viewBox="0 0 32 32" fill="none" xmlns="http://www.w3.org/2000/svg">
<path d="M8.57006 26.7407L13.9089 26.7707L13.905 27.3113C13.9046 27.4085 13.9343 27.5035 13.9901 27.5831C14.0459 27.6628 14.125 27.7232 14.2166 27.7561C14.2675 27.7748 14.3214 27.7844 14.3757 27.7844C14.4453 27.7843 14.5141 27.7687 14.5771 27.7389C14.6401 27.7091 14.6957 27.6658 14.74 27.612L17.98 23.6555C18.0482 23.5721 18.0858 23.4678 18.0863 23.3601C18.0868 23.2524 18.0504 23.1477 17.983 23.0637L14.7876 19.071C14.7267 18.9951 14.6439 18.9399 14.5505 18.913C14.457 18.8861 14.3575 18.8889 14.2657 18.9208C14.1739 18.9528 14.0942 19.0124 14.0376 19.0915C13.981 19.1706 13.9503 19.2652 13.9498 19.3625L13.9468 19.9031L9.41356 19.8772L11.9859 15.3572C12.0304 15.2788 12.0515 15.1894 12.0467 15.0994C12.0418 15.0094 12.0113 14.9227 11.9586 14.8496C11.906 14.7765 11.8334 14.72 11.7496 14.6869C11.6658 14.6538 11.5743 14.6455 11.4859 14.6629L8.15186 15.3221L6.93186 12.2147C6.89947 12.132 6.84428 12.0602 6.77272 12.0077C6.70115 11.9551 6.61614 11.9239 6.52756 11.9178C6.43912 11.912 6.35082 11.931 6.27265 11.9728C6.19447 12.0145 6.12953 12.0773 6.08516 12.1541L3.11656 17.373C3.07598 17.4446 3.0549 17.5256 3.05543 17.608C3.05596 17.6903 3.07807 17.771 3.11956 17.8422L8.16636 26.5073C8.20762 26.5778 8.26653 26.6365 8.33731 26.6774C8.40809 26.7183 8.4883 26.7401 8.57006 26.7407V26.7407ZM14.4119 20.8461H14.4148C14.4963 20.8462 14.5765 20.8251 14.6474 20.7847C14.7183 20.7444 14.7775 20.6862 14.8191 20.6161L17.0101 23.3544L14.7884 26.0678C14.7685 26.0328 14.7438 26.0008 14.7152 25.9726C14.672 25.9285 14.6205 25.8935 14.5636 25.8694C14.5068 25.8454 14.4458 25.8329 14.3841 25.8326L8.84406 25.8014L5.93006 20.7983L8.60386 20.8139L14.4119 20.8461ZM6.41666 13.4761L7.42006 16.0322C7.46002 16.1349 7.53486 16.2202 7.63147 16.2732C7.72807 16.3263 7.84026 16.3436 7.94836 16.3222L10.6593 15.7861L8.33386 19.8715L5.38006 19.8549L4.06876 17.603L6.41666 13.4761Z" fill="white"/>
<path d="M18.5373 13.1757C18.581 13.2511 18.6455 13.3124 18.7231 13.3521C18.8007 13.3918 18.8881 13.4084 18.9748 13.3998C19.0611 13.3931 19.1439 13.3628 19.2141 13.312C19.2842 13.2613 19.339 13.1921 19.3723 13.1122L20.719 9.89302L23.7356 10.2778C23.8234 10.2886 23.9124 10.2747 23.9926 10.2376C24.0729 10.2005 24.1411 10.1417 24.1897 10.0678C24.238 9.99364 24.2642 9.9073 24.2654 9.8188C24.2666 9.73031 24.2427 9.64329 24.1965 9.56782L21.0699 4.44082C21.0279 4.37205 20.9689 4.31524 20.8986 4.27584C20.8283 4.23643 20.7491 4.21577 20.6685 4.21582H20.6578L17.5264 4.28412C17.491 4.28101 17.4553 4.28185 17.42 4.28662L10.6324 4.43502C10.5507 4.43685 10.4709 4.45995 10.4009 4.50204C10.3308 4.54413 10.273 4.60375 10.233 4.67502L7.62132 9.33012L7.14992 9.06582C7.06512 9.01804 6.96758 8.99777 6.87076 9.00781C6.77394 9.01784 6.68263 9.05769 6.60943 9.12185C6.53623 9.186 6.48476 9.2713 6.46211 9.36596C6.43947 9.46063 6.44678 9.55999 6.48302 9.65032L8.37462 14.4008C8.40908 14.4885 8.46917 14.5637 8.54704 14.6167C8.62491 14.6696 8.71694 14.6979 8.81112 14.6977C8.83762 14.6974 8.86406 14.6951 8.89022 14.6908L13.9312 13.8295C14.0273 13.8134 14.116 13.7679 14.185 13.6993C14.2541 13.6306 14.3001 13.5422 14.3167 13.4462C14.3334 13.3502 14.3198 13.2515 14.2778 13.1636C14.2359 13.0757 14.1677 13.003 14.0826 12.9555L13.6109 12.6908L15.8287 8.73632L18.5373 13.1757ZM22.884 9.22112L20.4827 8.91452C20.3805 8.90081 20.2767 8.92142 20.1875 8.97311C20.0983 9.0248 20.0288 9.10465 19.9899 9.20012L18.861 11.9001L16.3318 7.75482L17.7341 5.22062L20.4075 5.16202L22.884 9.22112ZM12.5168 12.9985C12.5284 13.0368 12.5441 13.0737 12.5637 13.1085L9.10672 13.6985L7.80992 10.4408C7.89195 10.4393 7.97217 10.4164 8.04259 10.3743C8.11301 10.3322 8.17118 10.2724 8.21132 10.2008L10.9213 5.36932L16.6469 5.24432L15.3549 7.57822C15.3243 7.63408 15.3052 7.69553 15.2988 7.75892L12.5599 12.641C12.4987 12.7498 12.4832 12.8784 12.5168 12.9985V12.9985Z" fill="white"/>
<path d="M26.2405 12.6457L26.7105 12.3781C26.7952 12.3302 26.863 12.2571 26.9044 12.169C26.9458 12.0809 26.9588 11.9821 26.9417 11.8863C26.9245 11.7904 26.878 11.7023 26.8086 11.634C26.7392 11.5657 26.6503 11.5207 26.5542 11.5051L21.5074 10.6775C21.401 10.6598 21.2917 10.6792 21.198 10.7326C21.1043 10.7859 21.0318 10.8699 20.9927 10.9704L19.1327 15.7336C19.0974 15.8242 19.091 15.9235 19.1145 16.0178C19.1379 16.1121 19.1899 16.1969 19.2634 16.2604C19.3369 16.324 19.4283 16.3632 19.5251 16.3727C19.6218 16.3823 19.7191 16.3616 19.8036 16.3136L20.2743 16.0455L22.5194 19.9855L17.3194 20.0177C17.2306 20.0183 17.1437 20.044 17.0689 20.0919C16.9941 20.1397 16.9343 20.2078 16.8965 20.2882C16.8587 20.3686 16.8445 20.458 16.8554 20.5462C16.8663 20.6343 16.9019 20.7176 16.9581 20.7863L19.0713 23.3654L17.1153 25.9747C17.0626 26.0446 17.0305 26.1277 17.0225 26.2148C17.0145 26.3019 17.031 26.3895 17.07 26.4677C17.1091 26.5459 17.1692 26.6117 17.2436 26.6577C17.3181 26.7036 17.4038 26.7279 17.4913 26.7277H17.4942L23.4981 26.6905C23.5805 26.6901 23.6613 26.668 23.7325 26.6265C23.8036 26.5849 23.8626 26.5253 23.9034 26.4537L28.8834 17.7496C28.9242 17.6787 28.9457 17.5983 28.9457 17.5165C28.9457 17.4347 28.9242 17.3543 28.8834 17.2833L26.2405 12.6457ZM23.2205 25.7512L18.4354 25.7812L20.0438 23.6347C20.1069 23.5506 20.14 23.4478 20.1379 23.3427C20.1358 23.2376 20.0985 23.1362 20.0321 23.0547L18.3099 20.9524L23.0536 20.9224L24.5155 23.4888L23.2205 25.7512ZM25.057 22.5412L23.7332 20.218L20.8573 15.1711C20.8168 15.0997 20.7581 15.0401 20.6873 14.9985C20.6165 14.9568 20.536 14.9345 20.4539 14.9338L21.7303 11.6672L25.1912 12.2346C25.1706 12.2692 25.1552 12.3065 25.1453 12.3454C25.1287 12.405 25.1242 12.4672 25.1319 12.5285C25.1396 12.5898 25.1595 12.6489 25.1903 12.7024L27.9324 17.5158L25.057 22.5412Z" fill="white"/>
</svg>
