<svg width="512" height="512" viewBox="0 0 512 512" fill="none" xmlns="http://www.w3.org/2000/svg">
<path d="M330.322 355.097C330.322 377.864 348.845 396.387 371.613 396.387C394.38 396.387 412.903 377.864 412.903 355.097V346.839H330.322V355.097ZM394.975 363.355C391.564 372.967 382.381 379.871 371.613 379.871C360.844 379.871 351.661 372.967 348.251 363.355H394.975Z" fill="white"/>
<path d="M330.323 322.064C330.323 317.514 334.031 313.806 338.581 313.806C343.131 313.806 346.839 317.514 346.839 322.064V330.323H363.355V322.064C363.355 308.406 352.24 297.29 338.581 297.29C324.922 297.29 313.807 308.406 313.807 322.064V330.323H330.323V322.064Z" fill="white"/>
<path d="M404.645 297.29C390.986 297.29 379.871 308.406 379.871 322.064V330.323H396.387V322.064C396.387 317.514 400.095 313.806 404.645 313.806C409.195 313.806 412.903 317.514 412.903 322.064V330.323H429.419V322.064C429.419 308.406 418.304 297.29 404.645 297.29Z" fill="white"/>
<path d="M107.355 330.323C121.014 330.323 132.129 319.207 132.129 305.548V297.29H115.613V305.548C115.613 310.099 111.905 313.806 107.355 313.806C102.805 313.806 99.0972 310.099 99.0972 305.548V297.29H82.5811V305.548C82.5811 319.207 93.6964 330.323 107.355 330.323Z" fill="white"/>
<path d="M173.42 330.323C187.079 330.323 198.194 319.207 198.194 305.548V297.29H181.678V305.548C181.678 310.099 177.97 313.806 173.42 313.806C168.87 313.806 165.162 310.099 165.162 305.548V297.29H148.646V305.548C148.646 319.207 159.761 330.323 173.42 330.323Z" fill="white"/>
<path d="M462.452 479.554C462.452 454.441 449.693 430.889 429.229 416.966C447.067 405.075 459.479 385.701 461.964 363.355H462.452C480.669 363.355 495.484 348.54 495.484 330.323C495.484 322.56 492.676 315.508 488.175 309.859L493.857 281.427C494.931 276.059 495.476 270.559 495.476 265.076C495.484 219.086 458.075 181.677 412.086 181.677H331.14C303.748 181.677 279.469 195.014 264.258 215.469V0H247.742V60.7463C234.108 43.8668 213.273 33.0323 189.935 33.0323C181.157 33.0323 172.577 34.5765 164.352 37.6237C147.274 13.9396 120.287 0 90.8387 0C40.7535 0 0 40.7535 0 90.8387C0 107.272 4.39329 123.169 12.7587 137.199C4.49239 147.439 0 160.066 0 173.419C0 193.784 10.9915 212.571 28.0857 222.902C20.7855 235.297 16.5161 249.683 16.5161 265.076C16.5161 270.559 17.0612 276.067 18.1347 281.427L23.8163 309.859C19.3239 315.508 16.5161 322.56 16.5161 330.323C16.5161 348.54 31.3311 363.355 49.5484 363.355H50.0356C52.5213 385.701 64.9332 405.075 82.7706 416.966C62.3071 430.889 49.5484 454.441 49.5484 479.554V495.484H0V512H512V495.484H462.452V479.554ZM445.935 479.554V495.484H297.29V479.554C297.29 460.346 306.886 442.36 322.279 431.401L334.972 469.479L371.613 432.838L408.254 469.479L420.947 431.401C436.34 442.368 445.935 460.346 445.935 479.554V479.554ZM38.5569 299.314L34.337 278.189C33.4699 273.887 33.0323 269.477 33.0323 265.076C33.0323 228.195 63.0338 198.194 99.9143 198.194H180.86C217.74 198.194 247.742 228.195 247.742 265.076C247.742 269.477 247.304 273.887 246.445 278.189L242.226 299.314C238.765 298.083 235.099 297.29 231.226 297.29H230.392C226.552 278.47 209.879 264.258 189.935 264.258H115.613C106.504 264.258 99.0968 256.851 99.0968 247.742C99.0968 238.633 106.504 231.226 115.613 231.226V214.71C97.3956 214.71 82.5806 229.525 82.5806 247.742C82.5806 248.023 82.5806 248.295 82.5889 248.568C63.7605 252.399 49.5484 269.089 49.5484 289.032V297.29C45.6754 297.29 42.0088 298.083 38.5569 299.314V299.314ZM280.774 346.839C271.666 346.839 264.258 339.431 264.258 330.323C264.258 321.214 271.666 313.806 280.774 313.806V346.839ZM198.194 358.516L214.71 341.999V355.097C214.71 370.804 208.392 385.049 198.194 395.479V358.516ZM231.226 313.806C240.334 313.806 247.742 321.214 247.742 330.323C247.742 339.431 240.334 346.839 231.226 346.839V313.806ZM66.0645 289.032C66.0645 276.62 75.2475 266.306 87.1721 264.531C92.928 274.242 103.523 280.774 115.613 280.774H189.935C203.594 280.774 214.71 291.89 214.71 305.548V318.646L186.517 346.839H94.2575L66.0645 318.646V289.032ZM99.0968 363.355H181.677V407.246C174.154 410.839 165.781 412.903 156.903 412.903H123.871C114.994 412.903 106.62 410.839 99.0968 407.246V363.355ZM120.617 429.254L110.964 438.908L107.148 427.454C111.5 428.461 116.009 429.056 120.617 429.254ZM173.626 427.454L169.811 438.908L160.157 429.254C164.765 429.056 169.274 428.461 173.626 427.454ZM230.739 363.355H231.226C237.271 363.355 242.861 361.604 247.742 358.763V495.484H231.226V479.554C231.226 454.441 218.467 430.889 198.004 416.966C215.841 405.075 228.253 385.701 230.739 363.355ZM264.258 358.763C269.139 361.604 274.729 363.355 280.774 363.355H281.261C283.747 385.701 296.159 405.075 313.996 416.966C293.533 430.889 280.774 454.441 280.774 479.554V495.484H264.258V358.763ZM338.374 427.454C342.734 428.461 347.235 429.056 351.843 429.254L342.189 438.908L338.374 427.454ZM391.383 429.254C395.991 429.056 400.5 428.461 404.852 427.454L401.036 438.908L391.383 429.254ZM445.935 355.097C445.935 386.973 420.005 412.903 388.129 412.903H355.097C323.221 412.903 297.29 386.973 297.29 355.097V289.032C297.29 276.62 306.473 266.306 318.398 264.531C324.154 274.242 334.749 280.774 346.839 280.774H421.161C434.82 280.774 445.935 291.89 445.935 305.548V355.097ZM462.452 346.839V313.806C471.56 313.806 478.968 321.214 478.968 330.323C478.968 339.431 471.56 346.839 462.452 346.839ZM331.14 198.194H412.086C448.966 198.194 478.968 228.195 478.968 265.076C478.968 269.477 478.53 273.887 477.671 278.189L473.451 299.314C469.991 298.083 466.325 297.29 462.452 297.29H461.618C457.778 278.47 441.105 264.258 421.161 264.258H346.839C337.73 264.258 330.323 256.851 330.323 247.742C330.323 238.633 337.73 231.226 346.839 231.226V214.71C328.621 214.71 313.806 229.525 313.806 247.742C313.806 248.023 313.806 248.295 313.815 248.568C294.986 252.399 280.774 269.089 280.774 289.032V297.29C276.901 297.29 273.235 298.083 269.783 299.314L265.563 278.189C264.696 273.887 264.258 269.477 264.258 265.076C264.258 228.195 294.26 198.194 331.14 198.194V198.194ZM16.5161 173.419C16.5161 162.254 20.9177 151.783 28.9197 143.946L33.9076 139.049L29.9025 133.318C21.1489 120.774 16.5161 106.091 16.5161 90.8387C16.5161 49.8622 49.8622 16.5161 90.8387 16.5161C116.885 16.5161 140.577 29.8612 154.228 52.2075L158.134 58.591L164.864 55.3373C172.825 51.4973 181.256 49.5484 189.935 49.5484C221.812 49.5484 247.742 75.4787 247.742 107.355V215.469C232.531 195.014 208.252 181.677 180.86 181.677H99.9143C75.2723 181.677 53.1572 192.487 37.8715 209.532C24.9228 202.347 16.5161 188.482 16.5161 173.419V173.419ZM33.0323 330.323C33.0323 321.214 40.4397 313.806 49.5484 313.806V346.839C40.4397 346.839 33.0323 339.431 33.0323 330.323ZM66.0645 355.097V341.999L82.5806 358.516V395.479C72.3819 385.049 66.0645 370.804 66.0645 355.097ZM66.0645 479.554C66.0645 460.346 75.6604 442.36 91.0534 431.401L103.746 469.479L140.387 432.838L177.028 469.479L189.721 431.401C205.114 442.368 214.71 460.346 214.71 479.554V495.484H66.0645V479.554Z" fill="white"/>
<path d="M363.354 82.5806H470.709C484.368 82.5806 495.484 93.696 495.484 107.355C495.484 111.905 491.776 115.613 487.225 115.613C482.675 115.613 478.967 111.905 478.967 107.355V99.0968H462.451V107.355C462.451 121.014 473.567 132.129 487.225 132.129C500.884 132.129 512 121.014 512 107.355C512 84.5874 493.477 66.0645 470.709 66.0645H363.354V82.5806Z" fill="white"/>
<path d="M462.452 24.7742C462.452 11.1154 451.336 0 437.678 0H429.42V16.5161H437.678C442.228 16.5161 445.936 20.224 445.936 24.7742C445.936 29.3244 442.228 33.0323 437.678 33.0323H280.774V49.5484H437.678C451.336 49.5484 462.452 38.433 462.452 24.7742Z" fill="white"/>
<path d="M396.387 123.871C396.387 128.421 392.679 132.129 388.129 132.129H379.871V148.645H388.129C401.788 148.645 412.903 137.53 412.903 123.871C412.903 110.212 401.788 99.0968 388.129 99.0968H280.774V115.613H388.129C392.679 115.613 396.387 119.321 396.387 123.871Z" fill="white"/>
<path d="M297.29 66.0645H346.838V82.5806H297.29V66.0645Z" fill="white"/>
<path d="M140.387 165.161C154.046 165.161 165.162 154.046 165.162 140.387C165.162 126.728 154.046 115.613 140.387 115.613C126.729 115.613 115.613 126.728 115.613 140.387C115.613 154.046 126.729 165.161 140.387 165.161ZM140.387 132.129C144.938 132.129 148.646 135.837 148.646 140.387C148.646 144.937 144.938 148.645 140.387 148.645C135.837 148.645 132.129 144.937 132.129 140.387C132.129 135.837 135.837 132.129 140.387 132.129Z" fill="white"/>
<path d="M74.323 165.161C87.9819 165.161 99.0972 154.046 99.0972 140.387V132.129H82.5811V140.387C82.5811 144.937 78.8732 148.645 74.323 148.645C69.7728 148.645 66.065 144.937 66.065 140.387V107.355C66.065 102.805 69.7728 99.0968 74.323 99.0968C78.8732 99.0968 82.5811 102.805 82.5811 107.355V115.613H99.0972V107.355C99.0972 93.696 87.9819 82.5806 74.323 82.5806C60.6642 82.5806 49.5488 93.696 49.5488 107.355V140.387C49.5488 154.046 60.6642 165.161 74.323 165.161Z" fill="white"/>
<path d="M231.226 148.645H198.194V132.129H231.226V82.5806H181.678V99.0968H214.71V115.613H181.678V165.161H231.226V148.645Z" fill="white"/>
</svg>
